<svg width="225" height="101" viewBox="0 0 225 101" fill="none" xmlns="http://www.w3.org/2000/svg">
<path d="M91.2509 51.9511L45.7601 12.5167L23.6203 31.561L0 51.9511V39.0306L45.7601 0L91.2509 39.0306V51.9511Z" fill="url(#paint0_linear_3123_672)"/>
<path d="M18.708 43.7724L45.8271 19.2773L72.5434 43.6378L45.8271 21.9691L18.708 43.7724Z" fill="#F5DBC2"/>
<rect x="37.7854" y="38.0059" width="6.46024" height="6.46024" fill="url(#paint1_linear_3123_672)"/>
<rect x="47.0059" y="38.0059" width="6.46024" height="6.46024" fill="url(#paint2_linear_3123_672)"/>
<rect x="37.7854" y="47.2266" width="6.46024" height="6.46024" fill="url(#paint3_linear_3123_672)"/>
<rect x="47.0059" y="47.2266" width="6.46024" height="6.46024" fill="url(#paint4_linear_3123_672)"/>
<path d="M7.92627 68.4214L5.3316 67.9717V65.8267H10.3826C11.1437 65.8267 12.17 65.7806 13.4616 65.6884C13.7614 65.6653 14.2111 65.6422 14.8108 65.6192C15.4335 65.5961 15.987 65.5846 16.4714 65.5846C20.7151 65.5846 23.8864 66.6455 25.9852 68.7674C28.107 70.8892 29.168 73.899 29.168 77.7968C29.168 80.5183 28.6375 82.94 27.5766 85.0619C26.5387 87.1837 25.0511 88.8443 23.1137 90.0436C21.1764 91.2199 18.9161 91.808 16.333 91.808C15.6642 91.808 14.6148 91.7619 13.1848 91.6696C11.8471 91.5774 10.9361 91.5312 10.4517 91.5312H5.19322V89.4555L7.92627 89.1096V68.4214ZM12.9426 89.2133C13.7268 89.4209 14.8223 89.5247 16.2292 89.5247C18.5356 89.4786 20.3461 88.556 21.6607 86.7571C22.9753 84.935 23.6327 82.2135 23.6327 78.5925C23.6327 75.156 22.9869 72.5037 21.6953 70.6355C20.4037 68.7443 18.3972 67.7987 15.6757 67.7987C15.0991 67.7987 14.5456 67.8333 14.0151 67.9025C13.5077 67.9717 13.1502 68.0178 12.9426 68.0409V89.2133ZM34.7981 100.146C34.383 100.146 33.9332 100.111 33.4489 100.042C32.9876 99.9726 32.6532 99.8918 32.4456 99.7996V96.0979C32.6071 96.1901 32.93 96.2824 33.4143 96.3746C33.8986 96.4669 34.3368 96.513 34.7289 96.513C35.8821 96.513 36.8277 96.1325 37.5658 95.3714C38.3269 94.6103 39.0303 93.3302 39.6761 91.5312H37.8079L31.304 74.7524L29.7472 74.3027V72.2961H39.2609V74.3027L36.7355 74.7178L39.8145 84.3008L41.0599 88.3831L42.1324 84.3008L44.9692 74.7178L42.7897 74.3027V72.2961H50.2969V74.3027L48.6018 74.7178C47.3332 78.5925 46.0763 82.3288 44.8308 85.9268C43.5854 89.5247 42.8589 91.5428 42.6513 91.981C41.9133 93.9183 41.2098 95.4636 40.541 96.6168C39.8721 97.77 39.0764 98.6464 38.1539 99.2461C37.2313 99.8457 36.1127 100.146 34.7981 100.146ZM53.5573 66.2419L50.9972 65.7921V63.924L57.3974 63.1629H57.4666L58.4007 63.8202V89.1788L60.9262 89.4555V91.5312H51.1356V89.4555L53.5573 89.1442V66.2419ZM62.9273 86.1343C62.9273 84.0355 63.9767 82.4557 66.0755 81.3947C68.1974 80.3338 70.9304 79.7918 74.2746 79.7688V78.9731C74.2746 78.0274 74.1709 77.2894 73.9633 76.7589C73.7788 76.2285 73.4213 75.8364 72.8908 75.5827C72.3834 75.3059 71.6338 75.1675 70.6421 75.1675C69.512 75.1675 68.4972 75.3175 67.5977 75.6173C66.6982 75.894 65.7641 76.2631 64.7955 76.7243L63.723 74.5102C64.0689 74.2104 64.6455 73.8529 65.4528 73.4378C66.2831 73.0226 67.2633 72.6651 68.3934 72.3653C69.5235 72.0424 70.6882 71.881 71.8875 71.881C73.6635 71.881 75.0473 72.1116 76.039 72.5729C77.0538 73.0341 77.7803 73.7722 78.2185 74.787C78.6568 75.8018 78.8759 77.1626 78.8759 78.8693V89.4555H80.744V91.3929C80.2827 91.5082 79.6254 91.6235 78.7721 91.7388C77.9187 91.8541 77.1691 91.9118 76.5234 91.9118C75.7392 91.9118 75.2087 91.7965 74.932 91.5658C74.6783 91.3352 74.5514 90.8624 74.5514 90.1474V89.2133C73.9287 89.9053 73.1215 90.528 72.1297 91.0815C71.138 91.635 70.0194 91.9118 68.7739 91.9118C67.713 91.9118 66.7328 91.6927 65.8333 91.2545C64.9569 90.7932 64.2535 90.1359 63.723 89.2825C63.1925 88.4061 62.9273 87.3567 62.9273 86.1343ZM70.9881 89.0404C71.4724 89.0404 72.0259 88.902 72.6487 88.6252C73.2714 88.3254 73.8134 87.9679 74.2746 87.5528V81.8791C72.1989 81.8791 70.6421 82.2366 69.6042 82.9515C68.5894 83.6435 68.082 84.5429 68.082 85.65C68.082 86.7571 68.3357 87.5989 68.8431 88.1755C69.3736 88.7521 70.0886 89.0404 70.9881 89.0404ZM84.8404 75.5827L82.6262 74.96V72.5729L88.3691 71.8464H88.4729L89.3378 72.5383V73.8875L89.3032 74.7178C90.1104 73.9567 91.1598 73.2994 92.4514 72.7459C93.7429 72.1923 95.046 71.9156 96.3607 71.9156C97.7676 71.9156 98.8631 72.1808 99.6473 72.7113C100.454 73.2187 101.031 74.0259 101.377 75.1329C101.723 76.24 101.896 77.7391 101.896 79.6304V89.1788L104.006 89.4555V91.5312H95.0806V89.4555L96.9488 89.1788V79.6304C96.9488 78.4311 96.8681 77.497 96.7066 76.8281C96.5452 76.1362 96.2454 75.6403 95.8072 75.3405C95.392 75.0176 94.7923 74.8562 94.0082 74.8562C92.6935 74.8562 91.2867 75.4212 89.7875 76.5514V89.1442L91.8633 89.4555V91.5312H82.8338V89.4555L84.8404 89.1442V75.5827ZM117.186 68.4214L114.418 67.9717V65.8267H132.858L133.308 71.6388H130.886L129.744 68.2138L122.272 67.9025V77.2087L127.08 77.1049L127.634 74.2681H129.848V82.6402H127.634L127.08 79.665L122.272 79.5612V89.3171L130.644 88.902L132.65 84.4738L135.245 85.2003L134.346 91.5312H114.453V89.4555L117.186 89.1096V68.4214ZM141.17 88.6944C141.355 88.9712 141.77 89.2364 142.416 89.4901C143.085 89.7207 143.753 89.8361 144.422 89.8361C145.506 89.8361 146.314 89.617 146.844 89.1788C147.398 88.7175 147.674 88.1178 147.674 87.3798C147.674 86.6187 147.34 86.0075 146.671 85.5462C146.002 85.0619 144.872 84.4738 143.281 83.7818L142.312 83.3667C140.721 82.6978 139.533 81.8906 138.749 80.945C137.964 79.9994 137.572 78.777 137.572 77.2779C137.572 76.24 137.884 75.3175 138.506 74.5102C139.129 73.6799 140.006 73.0341 141.136 72.5729C142.266 72.1116 143.569 71.881 145.045 71.881C146.129 71.881 147.052 71.9502 147.813 72.0885C148.597 72.2269 149.416 72.4114 150.269 72.6421C150.73 72.8035 151.076 72.8958 151.307 72.9188V77.4508H148.574L147.778 74.8216C147.64 74.5909 147.328 74.3834 146.844 74.1989C146.36 74.0144 145.806 73.9221 145.183 73.9221C144.238 73.9221 143.477 74.1297 142.9 74.5448C142.347 74.9369 142.07 75.4904 142.07 76.2054C142.07 76.8512 142.266 77.3932 142.658 77.8314C143.05 78.2465 143.477 78.5694 143.938 78.8001C144.399 79.0307 145.253 79.4113 146.498 79.9417C147.743 80.4722 148.77 80.9796 149.577 81.4639C150.407 81.9483 151.088 82.5825 151.618 83.3667C152.172 84.1278 152.448 85.0619 152.448 86.1689C152.448 87.8757 151.78 89.2595 150.442 90.3204C149.104 91.3813 147.178 91.9118 144.664 91.9118C143.488 91.9118 142.427 91.808 141.482 91.6004C140.559 91.3929 139.487 91.1161 138.264 90.7701L137.503 90.528V85.9614H140.375L141.17 88.6944ZM161.082 91.8426C159.629 91.8426 158.557 91.5082 157.865 90.8393C157.173 90.1705 156.827 89.1096 156.827 87.6565V74.96H154.578V73.161C154.763 73.0918 155.097 72.9765 155.581 72.815C156.066 72.6305 156.435 72.4806 156.688 72.3653C157.08 72.0655 157.415 71.5465 157.692 70.8085C157.899 70.3242 158.28 69.1248 158.833 67.2106H161.601L161.739 72.2961H167.032V74.96H161.774V84.6813C161.774 85.9729 161.808 86.8839 161.878 87.4144C161.947 87.9448 162.097 88.2908 162.327 88.4522C162.558 88.5906 162.962 88.6598 163.538 88.6598C164.115 88.6598 164.715 88.6022 165.337 88.4868C165.96 88.3485 166.479 88.187 166.894 88.0025L167.551 89.9399C166.906 90.4242 165.96 90.8624 164.715 91.2545C163.469 91.6466 162.258 91.8426 161.082 91.8426ZM169.011 86.1343C169.011 84.0355 170.061 82.4557 172.16 81.3947C174.281 80.3338 177.015 79.7918 180.359 79.7688V78.9731C180.359 78.0274 180.255 77.2894 180.047 76.7589C179.863 76.2285 179.505 75.8364 178.975 75.5827C178.468 75.3059 177.718 75.1675 176.726 75.1675C175.596 75.1675 174.581 75.3175 173.682 75.6173C172.782 75.894 171.848 76.2631 170.88 76.7243L169.807 74.5102C170.153 74.2104 170.73 73.8529 171.537 73.4378C172.367 73.0226 173.347 72.6651 174.477 72.3653C175.608 72.0424 176.772 71.881 177.972 71.881C179.748 71.881 181.131 72.1116 182.123 72.5729C183.138 73.0341 183.864 73.7722 184.303 74.787C184.741 75.8018 184.96 77.1626 184.96 78.8693V89.4555H186.828V91.3929C186.367 91.5082 185.71 91.6235 184.856 91.7388C184.003 91.8541 183.253 91.9118 182.607 91.9118C181.823 91.9118 181.293 91.7965 181.016 91.5658C180.762 91.3352 180.636 90.8624 180.636 90.1474V89.2133C180.013 89.9053 179.206 90.528 178.214 91.0815C177.222 91.635 176.103 91.9118 174.858 91.9118C173.797 91.9118 172.817 91.6927 171.917 91.2545C171.041 90.7932 170.338 90.1359 169.807 89.2825C169.277 88.4061 169.011 87.3567 169.011 86.1343ZM177.072 89.0404C177.557 89.0404 178.11 88.902 178.733 88.6252C179.355 88.3254 179.897 87.9679 180.359 87.5528V81.8791C178.283 81.8791 176.726 82.2366 175.688 82.9515C174.674 83.6435 174.166 84.5429 174.166 85.65C174.166 86.7571 174.42 87.5989 174.927 88.1755C175.458 88.7521 176.173 89.0404 177.072 89.0404ZM194.799 91.8426C193.346 91.8426 192.274 91.5082 191.582 90.8393C190.89 90.1705 190.544 89.1096 190.544 87.6565V74.96H188.295V73.161C188.48 73.0918 188.814 72.9765 189.298 72.815C189.783 72.6305 190.152 72.4806 190.406 72.3653C190.798 72.0655 191.132 71.5465 191.409 70.8085C191.616 70.3242 191.997 69.1248 192.55 67.2106H195.318L195.456 72.2961H200.75V74.96H195.491V84.6813C195.491 85.9729 195.526 86.8839 195.595 87.4144C195.664 87.9448 195.814 88.2908 196.045 88.4522C196.275 88.5906 196.679 88.6598 197.255 88.6598C197.832 88.6598 198.432 88.6022 199.054 88.4868C199.677 88.3485 200.196 88.187 200.611 88.0025L201.269 89.9399C200.623 90.4242 199.677 90.8624 198.432 91.2545C197.186 91.6466 195.975 91.8426 194.799 91.8426ZM211.827 91.9118C208.783 91.9118 206.511 91.0238 205.012 89.2479C203.536 87.449 202.798 85.0042 202.798 81.9137C202.798 79.8379 203.178 78.039 203.939 76.5168C204.724 74.9946 205.819 73.8298 207.226 73.0226C208.633 72.2154 210.259 71.8118 212.104 71.8118C214.41 71.8118 216.186 72.423 217.432 73.6453C218.677 74.8446 219.323 76.5629 219.369 78.8001C219.369 80.3223 219.277 81.4524 219.092 82.1904H207.849C207.941 84.2892 208.437 85.9268 209.336 87.103C210.236 88.2562 211.516 88.8328 213.176 88.8328C214.076 88.8328 214.998 88.6829 215.944 88.3831C216.913 88.0832 217.674 87.7257 218.227 87.3106L219.092 89.2133C218.47 89.8822 217.455 90.5049 216.048 91.0815C214.664 91.635 213.257 91.9118 211.827 91.9118ZM214.526 80.1147C214.572 79.4689 214.595 78.9731 214.595 78.6271C214.595 75.5596 213.569 74.0259 211.516 74.0259C210.386 74.0259 209.509 74.4756 208.887 75.3751C208.264 76.2746 207.918 77.8545 207.849 80.1147H214.526Z" fill="#F5DBC2"/>
<defs>
<linearGradient id="paint0_linear_3123_672" x1="45.6255" y1="0" x2="45.6255" y2="51.9511" gradientUnits="userSpaceOnUse">
<stop stop-color="#CBAB81"/>
<stop offset="0.49" stop-color="#FDE4CF"/>
<stop offset="1" stop-color="#CBAB81"/>
</linearGradient>
<linearGradient id="paint1_linear_3123_672" x1="41.0155" y1="38.0059" x2="41.0155" y2="44.4661" gradientUnits="userSpaceOnUse">
<stop stop-color="#DBBD9A"/>
<stop offset="1" stop-color="#F5DBC2"/>
</linearGradient>
<linearGradient id="paint2_linear_3123_672" x1="50.236" y1="38.0059" x2="50.236" y2="44.4661" gradientUnits="userSpaceOnUse">
<stop stop-color="#DBBD9A"/>
<stop offset="1" stop-color="#F5DBC2"/>
</linearGradient>
<linearGradient id="paint3_linear_3123_672" x1="41.0155" y1="47.2266" x2="41.0155" y2="53.6868" gradientUnits="userSpaceOnUse">
<stop stop-color="#DBBD9A"/>
<stop offset="1" stop-color="#F5DBC2"/>
</linearGradient>
<linearGradient id="paint4_linear_3123_672" x1="50.236" y1="47.2266" x2="50.236" y2="53.6868" gradientUnits="userSpaceOnUse">
<stop stop-color="#DBBD9A"/>
<stop offset="1" stop-color="#F5DBC2"/>
</linearGradient>
</defs>
</svg>
